solid Exported from Blender-2.72 (sub 0)
facet normal -1.000000 0.000000 0.000000
outer loop
vertex -83.273041 27.722450 -9.943420
vertex -83.273041 23.722450 -9.943420
vertex -83.273041 23.722450 -7.943420
endloop
endfacet
facet normal 0.000000 1.000000 0.000000
outer loop
vertex -80.473038 28.222450 -7.943419
vertex -80.473038 28.222450 -9.943419
vertex -82.773041 28.222450 -9.943420
endloop
endfacet
facet normal -0.707107 0.707107 0.000000
outer loop
vertex -83.273041 27.722450 -7.943420
vertex -82.773041 28.222450 -7.943420
vertex -82.773041 28.222450 -9.943420
endloop
endfacet
facet normal -0.000000 -1.000000 0.000000
outer loop
vertex -82.773041 23.222450 -7.943420
vertex -82.773041 23.222450 -9.943420
vertex -80.473038 23.222450 -9.943419
endloop
endfacet
facet normal -0.707107 -0.707107 0.000000
outer loop
vertex -82.773041 23.222450 -7.943420
vertex -83.273041 23.722450 -7.943420
vertex -83.273041 23.722450 -9.943420
endloop
endfacet
facet normal 1.000000 -0.000000 0.000000
outer loop
vertex -80.473038 28.222450 -9.943419
vertex -80.473038 28.222450 -7.943419
vertex -80.473038 23.222450 -9.943419
endloop
endfacet
facet normal -0.000000 1.000000 -0.000000
outer loop
vertex -81.473045 30.222450 -9.943419
vertex -81.473038 30.222450 -10.443420
vertex -84.273041 30.222450 -9.943420
endloop
endfacet
facet normal -0.000000 1.000000 0.000000
outer loop
vertex -81.473038 30.222450 -10.443420
vertex -84.273041 30.222450 -10.443420
vertex -84.273041 30.222450 -9.943420
endloop
endfacet
facet normal -1.000000 0.000000 0.000000
outer loop
vertex -85.273041 29.222450 -9.943421
vertex -85.273041 29.222450 -10.443421
vertex -85.273041 24.222450 -10.443421
endloop
endfacet
facet normal -0.000000 -0.000000 1.000000
outer loop
vertex -83.273041 23.722450 -7.943420
vertex -82.773041 23.222450 -7.943420
vertex -80.473038 23.222450 -7.943419
endloop
endfacet
facet normal 0.000000 0.000000 -1.000000
outer loop
vertex -85.273041 24.222450 -10.443421
vertex -80.473038 29.222450 -10.443419
vertex -80.473038 23.222450 -10.443419
endloop
endfacet
facet normal 0.707104 0.707109 0.000011
outer loop
vertex -81.473038 30.222450 -10.443420
vertex -81.473045 30.222450 -9.943419
vertex -80.473038 29.222450 -9.943419
endloop
endfacet
facet normal -0.707107 0.707107 0.000000
outer loop
vertex -84.273041 30.222450 -9.943420
vertex -84.273041 30.222450 -10.443420
vertex -85.273041 29.222450 -10.443421
endloop
endfacet
facet normal -0.707107 -0.707107 0.000000
outer loop
vertex -85.273041 24.222450 -9.943421
vertex -85.273041 24.222450 -10.443421
vertex -84.273041 23.222450 -10.443420
endloop
endfacet
facet normal -0.000000 0.000001 1.000000
outer loop
vertex -85.273041 24.222450 -9.943421
vertex -84.273041 23.222450 -9.943420
vertex -83.273041 23.722450 -9.943420
endloop
endfacet
facet normal -1.000000 0.000000 0.000000
outer loop
vertex -83.273041 27.722450 -7.943420
vertex -83.273041 27.722450 -9.943420
vertex -83.273041 23.722450 -7.943420
endloop
endfacet
facet normal 0.000000 1.000000 -0.000000
outer loop
vertex -82.773041 28.222450 -7.943420
vertex -80.473038 28.222450 -7.943419
vertex -82.773041 28.222450 -9.943420
endloop
endfacet
facet normal -0.707107 0.707107 0.000000
outer loop
vertex -83.273041 27.722450 -9.943420
vertex -83.273041 27.722450 -7.943420
vertex -82.773041 28.222450 -9.943420
endloop
endfacet
facet normal 0.000000 -1.000000 0.000000
outer loop
vertex -80.473038 23.222450 -7.943419
vertex -82.773041 23.222450 -7.943420
vertex -80.473038 23.222450 -9.943419
endloop
endfacet
facet normal -0.707107 -0.707107 -0.000000
outer loop
vertex -82.773041 23.222450 -9.943420
vertex -82.773041 23.222450 -7.943420
vertex -83.273041 23.722450 -9.943420
endloop
endfacet
facet normal 1.000000 -0.000000 0.000000
outer loop
vertex -80.473038 29.222450 -10.443419
vertex -80.473038 29.222450 -9.943419
vertex -80.473038 28.222450 -9.943419
endloop
endfacet
facet normal 1.000000 -0.000000 0.000000
outer loop
vertex -80.473038 29.222450 -10.443419
vertex -80.473038 28.222450 -9.943419
vertex -80.473038 23.222450 -10.443419
endloop
endfacet
facet normal 1.000000 0.000000 0.000000
outer loop
vertex -80.473038 28.222450 -7.943419
vertex -80.473038 23.222450 -7.943419
vertex -80.473038 23.222450 -9.943419
endloop
endfacet
facet normal 0.000000 -1.000000 0.000000
outer loop
vertex -80.473038 23.222450 -9.943419
vertex -82.773041 23.222450 -9.943420
vertex -80.473038 23.222450 -10.443419
endloop
endfacet
facet normal 1.000000 0.000000 0.000000
outer loop
vertex -80.473038 28.222450 -9.943419
vertex -80.473038 23.222450 -9.943419
vertex -80.473038 23.222450 -10.443419
endloop
endfacet
facet normal 0.000000 -1.000000 0.000000
outer loop
vertex -82.773041 23.222450 -9.943420
vertex -84.273041 23.222450 -9.943420
vertex -84.273041 23.222450 -10.443420
endloop
endfacet
facet normal -0.000000 -1.000000 0.000000
outer loop
vertex -82.773041 23.222450 -9.943420
vertex -84.273041 23.222450 -10.443420
vertex -80.473038 23.222450 -10.443419
endloop
endfacet
facet normal -1.000000 0.000000 0.000000
outer loop
vertex -85.273041 24.222450 -9.943421
vertex -85.273041 29.222450 -9.943421
vertex -85.273041 24.222450 -10.443421
endloop
endfacet
facet normal -0.000000 0.000000 1.000000
outer loop
vertex -80.473038 28.222450 -7.943419
vertex -82.773041 28.222450 -7.943420
vertex -83.273041 27.722450 -7.943420
endloop
endfacet
facet normal -0.000000 0.000000 1.000000
outer loop
vertex -80.473038 28.222450 -7.943419
vertex -83.273041 23.722450 -7.943420
vertex -80.473038 23.222450 -7.943419
endloop
endfacet
facet normal 0.000000 -0.000001 -1.000000
outer loop
vertex -84.273041 23.222450 -10.443420
vertex -85.273041 24.222450 -10.443421
vertex -80.473038 23.222450 -10.443419
endloop
endfacet
facet normal -0.000000 0.000000 1.000000
outer loop
vertex -80.473038 28.222450 -7.943419
vertex -83.273041 27.722450 -7.943420
vertex -83.273041 23.722450 -7.943420
endloop
endfacet
facet normal -0.000000 -0.000001 -1.000000
outer loop
vertex -84.273041 30.222450 -10.443420
vertex -81.473038 30.222450 -10.443420
vertex -80.473038 29.222450 -10.443419
endloop
endfacet
facet normal 0.000000 0.000001 -1.000000
outer loop
vertex -84.273041 30.222450 -10.443420
vertex -80.473038 29.222450 -10.443419
vertex -85.273041 29.222450 -10.443421
endloop
endfacet
facet normal 0.707107 0.707107 0.000000
outer loop
vertex -80.473038 29.222450 -10.443419
vertex -81.473038 30.222450 -10.443420
vertex -80.473038 29.222450 -9.943419
endloop
endfacet
facet normal 0.000000 0.000000 -1.000000
outer loop
vertex -80.473038 29.222450 -10.443419
vertex -85.273041 24.222450 -10.443421
vertex -85.273041 29.222450 -10.443421
endloop
endfacet
facet normal -0.707107 0.707107 0.000000
outer loop
vertex -85.273041 29.222450 -9.943421
vertex -84.273041 30.222450 -9.943420
vertex -85.273041 29.222450 -10.443421
endloop
endfacet
facet normal -0.707107 -0.707107 0.000000
outer loop
vertex -84.273041 23.222450 -9.943420
vertex -85.273041 24.222450 -9.943421
vertex -84.273041 23.222450 -10.443420
endloop
endfacet
facet normal 0.000000 0.000000 1.000000
outer loop
vertex -84.273041 23.222450 -9.943420
vertex -82.773041 23.222450 -9.943420
vertex -83.273041 23.722450 -9.943420
endloop
endfacet
facet normal -0.000000 0.000000 1.000000
outer loop
vertex -82.773041 28.222450 -9.943420
vertex -80.473038 28.222450 -9.943419
vertex -80.473038 29.222450 -9.943419
endloop
endfacet
facet normal -0.000000 0.000000 1.000000
outer loop
vertex -83.273041 27.722450 -9.943420
vertex -85.273041 24.222450 -9.943421
vertex -83.273041 23.722450 -9.943420
endloop
endfacet
facet normal -0.000000 -0.000000 1.000000
outer loop
vertex -82.773041 28.222450 -9.943420
vertex -80.473038 29.222450 -9.943419
vertex -81.473045 30.222450 -9.943419
endloop
endfacet
facet normal 0.000000 0.000000 1.000000
outer loop
vertex -84.273041 30.222450 -9.943420
vertex -83.273041 27.722450 -9.943420
vertex -82.773041 28.222450 -9.943420
endloop
endfacet
facet normal -0.000000 -0.000000 1.000000
outer loop
vertex -81.473045 30.222450 -9.943419
vertex -84.273041 30.222450 -9.943420
vertex -82.773041 28.222450 -9.943420
endloop
endfacet
facet normal -0.000001 -0.000000 1.000000
outer loop
vertex -85.273041 29.222450 -9.943421
vertex -83.273041 27.722450 -9.943420
vertex -84.273041 30.222450 -9.943420
endloop
endfacet
facet normal -0.000000 0.000000 1.000000
outer loop
vertex -85.273041 29.222450 -9.943421
vertex -85.273041 24.222450 -9.943421
vertex -83.273041 27.722450 -9.943420
endloop
endfacet
facet normal -1.000000 0.000000 0.000000
outer loop
vertex -83.273041 21.722450 -9.943421
vertex -83.273041 17.722450 -9.943421
vertex -83.273041 17.722450 -7.943421
endloop
endfacet
facet normal 0.000000 1.000000 -0.000000
outer loop
vertex -80.473045 22.222450 -7.943420
vertex -80.473038 22.222450 -9.943420
vertex -82.773041 22.222450 -9.943421
endloop
endfacet
facet normal -0.000000 -1.000000 0.000000
outer loop
vertex -82.773041 17.222450 -7.943421
vertex -82.773041 17.222450 -9.943421
vertex -80.473038 17.222450 -9.943420
endloop
endfacet
facet normal -0.707107 0.707107 0.000000
outer loop
vertex -83.273041 21.722450 -7.943421
vertex -82.773041 22.222450 -7.943421
vertex -82.773041 22.222450 -9.943421
endloop
endfacet
facet normal -0.707107 -0.707107 0.000000
outer loop
vertex -82.773041 17.222450 -7.943421
vertex -83.273041 17.722450 -7.943421
vertex -83.273041 17.722450 -9.943421
endloop
endfacet
facet normal -1.000000 0.000000 0.000000
outer loop
vertex -85.273041 21.222450 -9.943422
vertex -85.273041 21.222450 -10.443422
vertex -85.273041 16.222450 -10.443422
endloop
endfacet
facet normal -0.000000 -0.000000 1.000000
outer loop
vertex -83.273041 17.722450 -9.943421
vertex -85.273041 16.222450 -9.943422
vertex -84.273041 15.222450 -9.943422
endloop
endfacet
facet normal 0.000000 -1.000000 0.000000
outer loop
vertex -81.473038 15.222450 -9.943420
vertex -84.273041 15.222450 -9.943422
vertex -81.473038 15.222450 -10.443421
endloop
endfacet
facet normal -0.000000 -1.000000 0.000000
outer loop
vertex -84.273041 15.222450 -9.943422
vertex -84.273041 15.222450 -10.443422
vertex -81.473038 15.222450 -10.443421
endloop
endfacet
facet normal -0.707107 0.707107 0.000000
outer loop
vertex -84.273041 22.222450 -10.443422
vertex -85.273041 21.222450 -10.443422
vertex -84.273041 22.222450 -9.943422
endloop
endfacet
facet normal -0.000000 -0.000000 1.000000
outer loop
vertex -83.273041 17.722450 -7.943421
vertex -82.773041 17.222450 -7.943421
vertex -80.473038 17.222450 -7.943420
endloop
endfacet
facet normal -0.707107 0.707107 0.000000
outer loop
vertex -85.273041 21.222450 -10.443422
vertex -85.273041 21.222450 -9.943422
vertex -84.273041 22.222450 -9.943422
endloop
endfacet
facet normal -0.707107 -0.707107 -0.000000
outer loop
vertex -84.273041 15.222450 -10.443422
vertex -84.273041 15.222450 -9.943422
vertex -85.273041 16.222450 -9.943422
endloop
endfacet
facet normal 0.707107 -0.707107 0.000000
outer loop
vertex -80.473038 16.222450 -10.443420
vertex -80.473038 16.222450 -9.943420
vertex -81.473038 15.222450 -9.943420
endloop
endfacet
facet normal -1.000000 0.000000 0.000000
outer loop
vertex -83.273041 21.722450 -7.943421
vertex -83.273041 21.722450 -9.943421
vertex -83.273041 17.722450 -7.943421
endloop
endfacet
facet normal 0.000000 1.000000 -0.000000
outer loop
vertex -82.773041 22.222450 -7.943421
vertex -80.473045 22.222450 -7.943420
vertex -82.773041 22.222450 -9.943421
endloop
endfacet
facet normal 0.000000 -1.000000 0.000000
outer loop
vertex -80.473038 17.222450 -7.943420
vertex -82.773041 17.222450 -7.943421
vertex -80.473038 17.222450 -9.943420
endloop
endfacet
facet normal -0.707107 0.707107 0.000000
outer loop
vertex -83.273041 21.722450 -9.943421
vertex -83.273041 21.722450 -7.943421
vertex -82.773041 22.222450 -9.943421
endloop
endfacet
facet normal -0.707107 -0.707107 -0.000000
outer loop
vertex -82.773041 17.222450 -9.943421
vertex -82.773041 17.222450 -7.943421
vertex -83.273041 17.722450 -9.943421
endloop
endfacet
facet normal -1.000000 0.000000 0.000000
outer loop
vertex -85.273041 16.222450 -9.943422
vertex -85.273041 21.222450 -9.943422
vertex -85.273041 16.222450 -10.443422
endloop
endfacet
facet normal -0.000000 0.000000 1.000000
outer loop
vertex -80.473038 16.222450 -9.943420
vertex -80.473038 17.222450 -9.943420
vertex -82.773041 17.222450 -9.943421
endloop
endfacet
facet normal -0.000001 0.000001 1.000000
outer loop
vertex -83.273041 21.722450 -9.943421
vertex -82.773041 22.222450 -9.943421
vertex -84.273041 22.222450 -9.943422
endloop
endfacet
facet normal -0.000000 0.000000 1.000000
outer loop
vertex -81.473038 15.222450 -9.943420
vertex -80.473038 16.222450 -9.943420
vertex -82.773041 17.222450 -9.943421
endloop
endfacet
facet normal -0.000001 0.000001 1.000000
outer loop
vertex -84.273041 22.222450 -9.943422
vertex -85.273041 21.222450 -9.943422
vertex -83.273041 21.722450 -9.943421
endloop
endfacet
facet normal -0.000000 -0.000000 1.000000
outer loop
vertex -83.273041 17.722450 -9.943421
vertex -84.273041 15.222450 -9.943422
vertex -82.773041 17.222450 -9.943421
endloop
endfacet
facet normal 1.000000 0.000000 0.000004
outer loop
vertex -80.473045 22.222450 -7.943420
vertex -80.473038 17.222450 -9.943420
vertex -80.473038 22.222450 -9.943420
endloop
endfacet
facet normal -0.000000 0.000000 1.000000
outer loop
vertex -85.273041 16.222450 -9.943422
vertex -83.273041 17.722450 -9.943421
vertex -85.273041 21.222450 -9.943422
endloop
endfacet
facet normal -0.000000 0.000000 1.000000
outer loop
vertex -85.273041 21.222450 -9.943422
vertex -83.273041 17.722450 -9.943421
vertex -83.273041 21.722450 -9.943421
endloop
endfacet
facet normal -0.000001 0.000000 1.000000
outer loop
vertex -84.273041 15.222450 -9.943422
vertex -81.473038 15.222450 -9.943420
vertex -82.773041 17.222450 -9.943421
endloop
endfacet
facet normal 1.000000 -0.000000 0.000000
outer loop
vertex -80.473038 22.222450 -10.443420
vertex -80.473038 17.222450 -9.943420
vertex -80.473038 16.222450 -10.443420
endloop
endfacet
facet normal 1.000000 0.000002 -0.000000
outer loop
vertex -80.473045 22.222450 -7.943420
vertex -80.473038 17.222450 -7.943420
vertex -80.473038 17.222450 -9.943420
endloop
endfacet
facet normal 1.000000 0.000000 0.000000
outer loop
vertex -80.473038 17.222450 -9.943420
vertex -80.473038 22.222450 -10.443420
vertex -80.473038 22.222450 -9.943420
endloop
endfacet
facet normal 1.000000 0.000000 0.000000
outer loop
vertex -80.473038 17.222450 -9.943420
vertex -80.473038 16.222450 -9.943420
vertex -80.473038 16.222450 -10.443420
endloop
endfacet
facet normal 0.000000 1.000000 -0.000000
outer loop
vertex -84.273041 22.222450 -9.943422
vertex -82.773041 22.222450 -9.943421
vertex -84.273041 22.222450 -10.443422
endloop
endfacet
facet normal 0.000000 1.000000 -0.000000
outer loop
vertex -82.773041 22.222450 -9.943421
vertex -80.473038 22.222450 -9.943420
vertex -80.473038 22.222450 -10.443420
endloop
endfacet
facet normal 0.000000 1.000000 -0.000000
outer loop
vertex -82.773041 22.222450 -9.943421
vertex -80.473038 22.222450 -10.443420
vertex -84.273041 22.222450 -10.443422
endloop
endfacet
facet normal -0.000000 0.000000 1.000000
outer loop
vertex -80.473045 22.222450 -7.943420
vertex -82.773041 22.222450 -7.943421
vertex -83.273041 21.722450 -7.943421
endloop
endfacet
facet normal -0.000000 -0.000000 1.000000
outer loop
vertex -80.473045 22.222450 -7.943420
vertex -83.273041 17.722450 -7.943421
vertex -80.473038 17.222450 -7.943420
endloop
endfacet
facet normal -0.000000 0.000000 1.000000
outer loop
vertex -80.473045 22.222450 -7.943420
vertex -83.273041 21.722450 -7.943421
vertex -83.273041 17.722450 -7.943421
endloop
endfacet
facet normal -0.707107 -0.707107 0.000000
outer loop
vertex -85.273041 16.222450 -10.443422
vertex -84.273041 15.222450 -10.443422
vertex -85.273041 16.222450 -9.943422
endloop
endfacet
facet normal 0.707107 -0.707107 0.000000
outer loop
vertex -81.473038 15.222450 -10.443421
vertex -80.473038 16.222450 -10.443420
vertex -81.473038 15.222450 -9.943420
endloop
endfacet
facet normal 0.000001 -0.000001 -1.000000
outer loop
vertex -85.273041 21.222450 -10.443422
vertex -84.273041 22.222450 -10.443422
vertex -80.473038 22.222450 -10.443420
endloop
endfacet
facet normal 0.000000 0.000000 -1.000000
outer loop
vertex -85.273041 21.222450 -10.443422
vertex -80.473038 16.222450 -10.443420
vertex -85.273041 16.222450 -10.443422
endloop
endfacet
facet normal 0.000000 0.000001 -1.000000
outer loop
vertex -80.473038 16.222450 -10.443420
vertex -81.473038 15.222450 -10.443421
vertex -84.273041 15.222450 -10.443422
endloop
endfacet
facet normal 0.000000 0.000000 -1.000000
outer loop
vertex -85.273041 21.222450 -10.443422
vertex -80.473038 22.222450 -10.443420
vertex -80.473038 16.222450 -10.443420
endloop
endfacet
facet normal 0.000000 0.000000 -1.000000
outer loop
vertex -80.473038 16.222450 -10.443420
vertex -84.273041 15.222450 -10.443422
vertex -85.273041 16.222450 -10.443422
endloop
endfacet
endsolid Exported from Blender-2.72 (sub 0)
